<svg width="45" height="43" viewBox="0 0 45 43" fill="none" xmlns="http://www.w3.org/2000/svg">
<rect width="45" height="43" rx="6" fill="#F0F9FF"/>
<mask id="mask0_276_391" style="mask-type:luminance" maskUnits="userSpaceOnUse" x="8" y="6" width="28" height="29">
<rect x="8.75012" y="6.85352" width="26.7235" height="28.0362" fill="white"/>
</mask>
<g mask="url(#mask0_276_391)">
<path fill-rule="evenodd" clip-rule="evenodd" d="M10.9789 15.1978C10.979 12.5249 13.0442 10.3584 15.592 10.3584H28.633C31.181 10.3584 33.2447 12.5251 33.245 15.1975M33.245 15.1975L33.2473 18.3551C33.2474 18.5876 33.1595 18.8106 33.0029 18.975C32.8463 19.1395 32.6338 19.2319 32.4122 19.2319C31.4922 19.2319 30.7531 20.0071 30.7531 20.9713C30.7531 21.9345 31.4924 22.7107 32.4122 22.7107C32.8734 22.7107 33.2473 23.103 33.2473 23.5868V26.7409C33.2473 29.4138 31.1833 31.5807 28.6341 31.5807H15.5898C13.0416 31.5807 10.9777 29.4136 10.9777 26.7409V23.5868C10.9777 23.103 11.3516 22.7107 11.8128 22.7107C12.7312 22.7107 13.4708 21.9348 13.4708 20.9713C13.4708 20.0518 12.7755 19.3335 11.8128 19.3335C11.5913 19.3335 11.3789 19.2411 11.2222 19.0768C11.0656 18.9124 10.9777 18.6895 10.9777 18.457L10.9789 15.1978C10.9789 15.1979 10.9789 15.1977 10.9789 15.1978M12.5511 15.0955L12.5503 17.5988C13.9762 17.9621 15.0689 19.2327 15.0689 20.9049C15.0689 22.5437 14.0003 23.9172 12.55 24.3074V26.7108C12.55 28.4271 13.8803 29.8177 15.5223 29.8177H28.7016C30.3448 29.8177 31.675 28.427 31.675 26.7108V24.3075C30.224 23.9175 29.155 22.5441 29.155 20.9049C29.155 19.2648 30.2238 17.8923 31.6745 17.5023L31.6727 15.0961C31.6727 13.3798 30.3424 11.9886 28.7005 11.9886H15.5245C13.8822 11.9886 12.5511 13.3795 12.5511 15.0955ZM10.9789 15.1978L33.245 15.1975Z" fill="#5ABAFF"/>
</g>
</svg>
