<svg width="40" height="41" viewBox="0 0 40 41" fill="none" xmlns="http://www.w3.org/2000/svg">
<path d="M19.9998 12.3C22.1806 12.3 24.272 13.1639 25.8141 14.7017C27.3561 16.2395 28.2224 18.3252 28.2224 20.5C28.2224 22.6748 27.3561 24.7605 25.8141 26.2983C24.272 27.8361 22.1806 28.7 19.9998 28.7C17.819 28.7 15.7276 27.8361 14.1855 26.2983C12.6435 24.7605 11.7772 22.6748 11.7772 20.5C11.7772 18.3252 12.6435 16.2395 14.1855 14.7017C15.7276 13.1639 17.819 12.3 19.9998 12.3ZM19.9998 16.4C18.9094 16.4 17.8637 16.832 17.0927 17.6009C16.3216 18.3698 15.8885 19.4126 15.8885 20.5C15.8885 21.5874 16.3216 22.6302 17.0927 23.3991C17.8637 24.168 18.9094 24.6 19.9998 24.6C21.0902 24.6 22.1359 24.168 22.9069 23.3991C23.678 22.6302 24.1111 21.5874 24.1111 20.5C24.1111 19.4126 23.678 18.3698 22.9069 17.6009C22.1359 16.832 21.0902 16.4 19.9998 16.4ZM15.8885 41C15.3746 41 14.9429 40.631 14.8607 40.139L14.1001 34.7065C12.805 34.194 11.6949 33.497 10.626 32.677L5.5074 34.7475C5.05516 34.9115 4.50013 34.7475 4.25345 34.2965L0.14213 27.2035C0.016314 26.9923 -0.0280405 26.7426 0.0173604 26.5011C0.0627614 26.2596 0.194809 26.0429 0.388809 25.8915L4.72625 22.4885L4.58236 20.5L4.72625 18.45L0.388809 15.1085C0.194809 14.9571 0.0627614 14.7404 0.0173604 14.4989C-0.0280405 14.2574 0.016314 14.0077 0.14213 13.7965L4.25345 6.7035C4.50013 6.2525 5.05516 6.068 5.5074 6.2525L10.626 8.3025C11.6949 7.503 12.805 6.806 14.1001 6.2935L14.8607 0.861C14.9429 0.369 15.3746 0 15.8885 0H24.1111C24.625 0 25.0567 0.369 25.139 0.861L25.8995 6.2935C27.1946 6.806 28.3047 7.503 29.3736 8.3025L34.4922 6.2525C34.9444 6.068 35.4995 6.2525 35.7462 6.7035L39.8575 13.7965C40.1247 14.2475 40.0014 14.801 39.6108 15.1085L35.2734 18.45L35.4173 20.5L35.2734 22.55L39.6108 25.8915C40.0014 26.199 40.1247 26.7525 39.8575 27.2035L35.7462 34.2965C35.4995 34.7475 34.9444 34.932 34.4922 34.7475L29.3736 32.6975C28.3047 33.497 27.1946 34.194 25.8995 34.7065L25.139 40.139C25.0567 40.631 24.625 41 24.1111 41H15.8885ZM18.4581 4.1L17.6975 9.4505C15.2307 9.963 13.0517 11.275 11.4688 13.0995L6.51468 10.9675L4.97293 13.6325L9.31037 16.81C8.48811 19.2017 8.48811 21.7983 9.31037 24.19L4.95237 27.388L6.49412 30.053L11.4894 27.921C13.0722 29.725 15.2307 31.037 17.6769 31.529L18.4375 36.9H21.5621L22.3227 31.5495C24.7689 31.037 26.9274 29.725 28.5102 27.921L33.5055 30.053L35.0472 27.388L30.6892 24.2105C31.5115 21.812 31.5115 19.2085 30.6892 16.81L35.0267 13.6325L33.4849 10.9675L28.5308 13.0995C26.9155 11.2347 24.7244 9.95823 22.3021 9.471L21.5415 4.1H18.4581Z" fill="#737791"/>
</svg>
