<svg width="29" height="35" viewBox="0 0 29 35" fill="none" xmlns="http://www.w3.org/2000/svg">
<path fill-rule="evenodd" clip-rule="evenodd" d="M0 7C0 3.13401 3.14485 0 7.02423 0H17.5606V7C17.5606 10.866 20.7054 14 24.5848 14H28.0969V28C28.0969 31.866 24.9521 35 21.0727 35H7.02423C3.14485 35 0 31.866 0 28V7ZM7.02423 15.75C6.05439 15.75 5.26817 16.5335 5.26817 17.5C5.26817 18.4665 6.05439 19.25 7.02423 19.25H10.5363C11.5062 19.25 12.2924 18.4665 12.2924 17.5C12.2924 16.5335 11.5062 15.75 10.5363 15.75H7.02423ZM7.02423 22.75C6.05439 22.75 5.26817 23.5335 5.26817 24.5C5.26817 25.4665 6.05439 26.25 7.02423 26.25H14.0485C15.0183 26.25 15.8045 25.4665 15.8045 24.5C15.8045 23.5335 15.0183 22.75 14.0485 22.75H7.02423ZM22.27 3.84788L22.04 7.28504C21.9693 8.34148 22.8489 9.218 23.909 9.14757L27.3581 8.91842C28.8634 8.81841 29.5498 6.99802 28.483 5.93486L25.2638 2.72685C24.197 1.6637 22.3703 2.34768 22.27 3.84788Z" fill="white"/>
</svg>
