<svg width="50" height="50" viewBox="0 0 50 50" fill="none" xmlns="http://www.w3.org/2000/svg">
<path d="M44.4444 0H5.55556C2.5 0 0 2.5 0 5.55556V44.4444C0 47.5 2.5 50 5.55556 50H44.4444C47.5 50 50 47.5 50 44.4444V5.55556C50 2.5 47.5 0 44.4444 0ZM13.8889 38.8889C12.3611 38.8889 11.1111 37.6389 11.1111 36.1111V22.2222C11.1111 20.6944 12.3611 19.4444 13.8889 19.4444C15.4167 19.4444 16.6667 20.6944 16.6667 22.2222V36.1111C16.6667 37.6389 15.4167 38.8889 13.8889 38.8889ZM25 38.8889C23.4722 38.8889 22.2222 37.6389 22.2222 36.1111V13.8889C22.2222 12.3611 23.4722 11.1111 25 11.1111C26.5278 11.1111 27.7778 12.3611 27.7778 13.8889V36.1111C27.7778 37.6389 26.5278 38.8889 25 38.8889ZM36.1111 38.8889C34.5833 38.8889 33.3333 37.6389 33.3333 36.1111V30.5556C33.3333 29.0278 34.5833 27.7778 36.1111 27.7778C37.6389 27.7778 38.8889 29.0278 38.8889 30.5556V36.1111C38.8889 37.6389 37.6389 38.8889 36.1111 38.8889Z" fill="#5D5FEF"/>
</svg>
