<svg width="40" height="40" viewBox="0 0 40 40" fill="none" xmlns="http://www.w3.org/2000/svg">
<mask id="mask0_81_107" style="mask-type:luminance" maskUnits="userSpaceOnUse" x="0" y="0" width="40" height="40">
<rect width="40" height="40" fill="white"/>
</mask>
<g mask="url(#mask0_81_107)">
<path d="M17.1176 9.65125L17.5939 16.6769L17.8303 20.2081C17.8329 20.5712 17.8902 20.932 18.0009 21.2787C18.2864 21.9518 18.9734 22.3794 19.7208 22.3495L31.1095 21.6105C31.6027 21.6025 32.0789 21.7855 32.4334 22.1193C32.7288 22.3974 32.9196 22.7613 32.9798 23.1526L33 23.3902C32.5287 29.8638 27.7357 35.2634 21.2234 36.6572C14.7109 38.051 8.03272 35.1066 4.81458 29.4226C3.88682 27.7712 3.30733 25.9562 3.11013 24.0839C3.02776 23.5297 2.99149 22.9698 3.00167 22.4098C2.99149 15.4693 7.97389 9.46902 14.9483 8.02249C15.7877 7.89282 16.6106 8.33364 16.9472 9.09325C17.0343 9.26916 17.0918 9.45757 17.1176 9.65125Z" fill="#737791"/>
<path opacity="0.4" d="M38 16.465L37.9874 16.5212L37.9509 16.6029L37.956 16.8272C37.9372 17.1241 37.8171 17.4099 37.6104 17.6409C37.3948 17.8813 37.1005 18.045 36.7763 18.1086L36.5786 18.1345L22.7242 18.9923C22.2633 19.0357 21.8044 18.8937 21.4619 18.6018C21.1762 18.3582 20.9936 18.0297 20.942 17.6757L20.0122 4.45652C19.9959 4.41183 19.9959 4.36338 20.0122 4.31867C20.0248 3.95429 20.1927 3.60987 20.4783 3.36235C20.7636 3.11482 21.1431 2.98483 21.5315 3.00141C29.7565 3.20136 36.6694 8.85288 38 16.465Z" fill="#737791"/>
</g>
</svg>
