<svg width="40" height="40" viewBox="0 0 40 40" fill="none" xmlns="http://www.w3.org/2000/svg">
<circle cx="20" cy="20" r="20" fill="#BF83FF"/>
<path d="M18.2906 21C22.2188 21.0001 25.4029 23.2387 25.4029 26C25.4029 27.1046 24.5075 28 23.4029 28H13.1773C12.0727 28 11.1773 27.1046 11.1773 26C11.1773 23.2386 14.3622 21 18.2906 21ZM18.2906 12C20.5352 12.0002 22.355 13.791 22.355 16C22.355 18.209 20.5352 19.9998 18.2906 20C16.0458 20 14.2261 18.2091 14.2261 16C14.2261 13.7909 16.0458 12 18.2906 12ZM26.4195 14C26.9805 14.0002 27.4351 14.4478 27.4351 15V16H28.4517C29.0128 16.0002 29.4673 16.4478 29.4673 17C29.4673 17.5522 29.0128 17.9998 28.4517 18H27.4351V19C27.4351 19.5522 26.9805 19.9998 26.4195 20C25.8583 20 25.4029 19.5523 25.4029 19V18H24.3873C23.8261 18 23.3707 17.5523 23.3707 17C23.3707 16.4477 23.8261 16 24.3873 16H25.4029V15C25.4029 14.4477 25.8583 14 26.4195 14Z" fill="white"/>
</svg>
