<svg width="40" height="40" viewBox="0 0 40 40" fill="none" xmlns="http://www.w3.org/2000/svg">
<circle cx="20" cy="20" r="20" fill="#FA5A7D"/>
<path fill-rule="evenodd" clip-rule="evenodd" d="M9.99997 13.4C9.99997 10.9699 12.1688 9 14.8443 9H22.1107V13.4C22.1107 15.8301 24.2796 17.8 26.955 17.8H29.3772V26.6C29.3772 29.0301 27.2083 31 24.5329 31H14.8443C12.1688 31 9.99997 29.0301 9.99997 26.6V13.4ZM14.8443 18.9C14.1754 18.9 13.6332 19.3925 13.6332 20C13.6332 20.6075 14.1754 21.1 14.8443 21.1H17.2664C17.9353 21.1 18.4775 20.6075 18.4775 20C18.4775 19.3925 17.9353 18.9 17.2664 18.9H14.8443ZM14.8443 23.3C14.1754 23.3 13.6332 23.7925 13.6332 24.4C13.6332 25.0075 14.1754 25.5 14.8443 25.5H19.6886C20.3574 25.5 20.8996 25.0075 20.8996 24.4C20.8996 23.7925 20.3574 23.3 19.6886 23.3H14.8443ZM25.3586 11.4187L25.2 13.5792C25.1512 14.2432 25.7578 14.7942 26.4889 14.7499L28.8676 14.6059C29.9058 14.543 30.3791 13.3988 29.6434 12.7305L27.4233 10.714C26.6876 10.0458 25.4278 10.4757 25.3586 11.4187Z" fill="white"/>
</svg>
