<svg width="40" height="40" viewBox="0 0 40 40" fill="none" xmlns="http://www.w3.org/2000/svg">
<circle cx="20" cy="20" r="20" fill="#3CD8D0"/>
<path fill-rule="evenodd" clip-rule="evenodd" d="M10.0002 14C10.0002 11.7909 12.1691 10 14.8445 10H22.111V14C22.111 16.2091 24.2798 18 26.9552 18H29.3774V26C29.3774 28.2091 27.2085 30 24.5331 30H14.8445C12.1691 30 10.0002 28.2091 10.0002 26V14ZM14.8445 19C14.1757 19 13.6334 19.4477 13.6334 20C13.6334 20.5523 14.1757 21 14.8445 21H17.2667C17.9355 21 18.4777 20.5523 18.4777 20C18.4777 19.4477 17.9355 19 17.2667 19H14.8445ZM14.8445 23C14.1757 23 13.6334 23.4477 13.6334 24C13.6334 24.5523 14.1757 25 14.8445 25H19.6888C20.3577 25 20.8999 24.5523 20.8999 24C20.8999 23.4477 20.3577 23 19.6888 23H14.8445ZM25.3588 12.1988L25.2002 14.1629C25.1515 14.7666 25.7581 15.2674 26.4892 15.2272L28.8678 15.0962C29.906 15.0391 30.3794 13.9989 29.6436 13.3913L27.4236 11.5582C26.6878 10.9507 25.428 11.3415 25.3588 12.1988Z" fill="white"/>
</svg>
