<svg width="40" height="40" viewBox="0 0 40 40" fill="none" xmlns="http://www.w3.org/2000/svg">
<circle cx="20" cy="20" r="20" fill="#3CD8D0"/>
<path fill-rule="evenodd" clip-rule="evenodd" d="M10 13.4C10 10.9699 12.2386 9 15 9H22.5H25.6601C27.7955 9.00027 30 10.8854 30 12.7714V17.8V26.6C30 29.0301 27.7614 31 25 31H15C12.2386 31 10 29.0301 10 26.6V13.4ZM13.75 15.6C13.75 15.0331 14.358 14.6571 15 14.6571H24.5923C25.2873 14.6571 26.016 14.9863 26.016 15.6C26.016 16.2137 25.2873 16.5429 24.5923 16.5429H15C14.358 16.5429 13.75 16.1669 13.75 15.6ZM15 18.9C14.3096 18.9 13.75 19.3925 13.75 20C13.75 20.6075 14.3096 21.1 15 21.1H24.5923C25.2827 21.1 26.016 20.6075 26.016 20C26.016 19.3925 25.2827 18.9 24.5923 18.9H15ZM15 23.3C14.3096 23.3 13.75 23.7925 13.75 24.4C13.75 25.0075 14.3096 25.5 15 25.5H24.5923C25.2827 25.5 26.016 25.0075 26.016 24.4C26.016 23.7925 25.2827 23.3 24.5923 23.3H15Z" fill="white"/>
</svg>
